<svg width="125" height="129" viewBox="0 0 125 129" fill="none" xmlns="http://www.w3.org/2000/svg">
<path d="M50.9459 62.4854C50.6468 62.3885 50.2351 62.2596 49.7275 62.1117C48.6424 61.7956 47.1096 61.3899 45.2951 61.0242C41.7896 60.3176 37.0459 59.7208 32.3952 60.3237C31.3275 60.2551 30.258 60.1891 29.1948 60.124C28.9525 60.1091 28.7105 60.0943 28.4688 60.0795C22.5011 59.7145 16.763 59.3635 12.2737 58.7338C12.1168 58.3789 11.9357 57.8855 11.7529 57.2313C11.4103 56.0057 11.1742 54.6503 10.9994 53.5354C9.76742 45.6762 8.60255 37.5492 7.43349 29.393C6.274 21.3035 5.11038 13.1852 3.87302 5.2708C39.1166 23.3332 73.9374 41.1793 108.903 59.1088C112.419 60.92 115.855 62.6861 119.268 64.4383L3.86104 123.647C4.13897 121.846 4.40369 120.148 4.67935 118.448C5.9801 110.423 7.28626 102.401 8.59261 94.377C9.39432 89.4529 10.1961 84.5284 10.9968 79.6026C11.3674 77.3221 11.7112 74.5838 11.9786 72.3578C12.014 72.0629 12.0514 71.6317 12.0892 71.1957C12.1044 71.0209 12.1196 70.8453 12.1348 70.6774C12.1935 70.0292 12.2632 69.3449 12.3563 68.7184C12.3802 68.5573 12.4044 68.4093 12.4284 68.2743C14.9379 67.9767 18.2939 67.6928 21.7503 67.4025L21.9779 67.3834C25.8762 67.0561 29.879 66.72 32.6083 66.3505C38.0214 66.705 43.0796 67.1192 46.9668 67.8213C48.2858 68.0595 48.9882 68.1987 49.3431 68.2747C49.3736 68.2849 49.3996 68.2937 49.4211 68.3011L49.4833 68.3226L49.4927 68.3258L49.4937 68.3262L49.4945 68.3265L49.4947 68.3266L49.4954 68.3268L49.9298 68.4816L50.3935 68.4981L50.5 65.5C50.3935 68.4981 50.3947 68.4982 50.396 68.4982L50.3986 68.4983L50.4039 68.4985L50.4152 68.4988L50.4407 68.4994C50.4588 68.4998 50.4807 68.5001 50.5057 68.5001C50.5492 68.5001 50.6291 68.4993 50.7279 68.4924L50.7293 68.4923C50.7928 68.4879 51.0299 68.4714 51.319 68.3929C51.451 68.357 51.7883 68.2585 52.1614 68.0183C52.5106 67.7935 53.3453 67.1391 53.5128 65.8926C53.6788 64.6564 53.0564 63.8107 52.7913 63.5092C52.5033 63.1815 52.2116 62.9956 52.0948 62.9243C51.8381 62.7676 51.6119 62.6838 51.5449 62.659C51.3658 62.5927 51.1964 62.5478 51.0973 62.5225C51.0521 62.511 51.0019 62.4987 50.9459 62.4854ZM12.657 67.3411C12.657 67.3413 12.6552 67.3458 12.6514 67.3539C12.655 67.345 12.6569 67.3409 12.657 67.3411Z" stroke="white" stroke-width="6"/>
<path d="M51.2041 64.5012C51.5037 66.4786 51.5036 66.4786 51.5035 66.4787L51.503 66.4787L51.501 66.4791L51.4928 66.4803L51.4606 66.4852L51.3342 66.5043L50.8481 66.5778C50.4257 66.6417 49.8142 66.7341 49.057 66.8482C47.5427 67.0765 45.4461 67.392 43.1166 67.7406C38.4596 68.4375 32.8651 69.2678 29.1339 69.7985C26.2462 70.2092 23.3665 70.6316 20.4818 71.0547C18.7063 71.3152 16.929 71.5759 15.1467 71.8343C15.0347 71.8505 14.9453 71.8655 14.8727 71.8797C14.6918 73.353 14.4456 74.8298 14.2078 76.2558C14.1306 76.7189 14.0543 77.1767 13.9814 77.6272C13.2831 81.9425 12.5839 86.257 11.8847 90.5711C10.7456 97.5988 9.60671 104.626 8.47255 111.654C8.17147 113.52 7.8851 115.384 7.57273 117.424L110.366 64.4462C107.033 62.7272 103.681 60.9971 100.242 59.2173C69.3969 43.3288 38.6813 27.5152 7.5826 11.5045C8.11388 14.8185 8.64664 18.133 9.17947 21.448C10.9521 32.4763 12.7256 43.5099 14.4484 54.5496C14.5664 55.306 14.7499 55.5209 14.823 55.591C14.9115 55.6759 15.1597 55.8532 15.9413 55.9807C24.6846 57.4074 33.4146 58.9168 42.13 60.4981C43.7493 60.7919 46.1424 61.3088 48.1051 61.7458C49.0919 61.9656 49.9794 62.1673 50.6202 62.3141C50.9407 62.3875 51.1997 62.4472 51.3788 62.4886L51.5852 62.5365L51.6392 62.549L51.6531 62.5522L51.6567 62.5531L51.6577 62.5533L51.6579 62.5534C51.658 62.5534 51.6581 62.5534 51.2041 64.5012ZM51.2041 64.5012L51.5037 66.4786L51.6581 62.5534L51.2041 64.5012Z" fill="white" stroke="#FF0000" stroke-width="4"/>
<path d="M18.5 76L13.5 110L101 65L13.5 19L18.5 52L63.5 65L18.5 76Z" stroke="#FF0000" stroke-width="2"/>
<path d="M52 67.5V63L59 65.5L52 67.5Z" fill="#FF0000"/>
<path d="M35 70.5L16.5 73.5L18 75L35 70.5Z" fill="#FF0000"/>
<path d="M52 67.5V63L59 65.5L52 67.5Z" stroke="#FF0000" stroke-width="2"/>
<path d="M35 70.5L16.5 73.5L18 75L35 70.5Z" stroke="#FF0000" stroke-width="2"/>
<path d="M13.5 111.5L12 112.5L14.5 111.5V110.5H16L17.5 109L22 106L24 107L19 109L23.5 105.5L53.5 90L55 91L24.5 107L79 79L91.5 72L89.5 71.5L58.5 88L54.5 90L106.5 64.5L105.5 63.5L102.5 64.5H102L101 63L102 62L104.5 63H103.5L102.5 63.5L101 61L76 48L74 50.5L99.5 63L100.5 61L79.5 52L98.5 61L99.5 62L76.5 50H75L62.5 44.5L64.5 43L74.5 48L64.5 44.5L63.5 43V42.5L10.5 14.5L10 15.5L62.5 43.5H62L10 16.5L10.5 18L13 18.5L18 52.5L16.5 54L12 27L10 18.5L12 19L11.75 19.5M11.5 20L11.75 19.5M11.75 19.5L13.5 28L14 33L15.5 42L18.5 53L17.5 54L29.5 56.5L19.5 53.5M16.5 75L10 113.5L12 111.5L13.5 103.5L14.5 96.5L16 89.5L17 80.5L17.5 75H16.5Z" stroke="#FF0000" stroke-width="2"/>
<path d="M16.5 70.5L49.5 64L16.5 57L51.5 63.5L50.5 64L49.5 64.5" stroke="#FF0000" stroke-width="2"/>
<path d="M11 60L34.5 63.5L11 67" stroke="white" stroke-width="2"/>
</svg>
